<?xml version="1.0" encoding="UTF-8"?>
<svg id="Layer_1" data-name="Layer 1" xmlns="http://www.w3.org/2000/svg" xmlns:xlink="http://www.w3.org/1999/xlink" viewBox="0 0 1913.34 3038.57">
  <defs>
    <style>
      .cls-1 {
        fill: #915ee3;
      }

      .cls-2 {
        fill: url(#linear-gradient-2);
      }

      .cls-3 {
        fill: url(#linear-gradient-3);
      }

      .cls-4 {
        fill: #4f2c95;
      }

      .cls-5 {
        fill: url(#linear-gradient);
      }

      .cls-6 {
        fill: #1a1a2e;
      }
    </style>
    <linearGradient id="linear-gradient" x1="1041.75" y1="500.87" x2="1399.99" y2="1189.26" gradientUnits="userSpaceOnUse">
      <stop offset="0" stop-color="#35cbda"/>
      <stop offset="1" stop-color="#1d95b1"/>
    </linearGradient>
    <linearGradient id="linear-gradient-2" x1="433.41" y1="481.11" x2="1005.89" y2="1324.04" gradientUnits="userSpaceOnUse">
      <stop offset="0" stop-color="#9666e3"/>
      <stop offset="1" stop-color="#8143e1"/>
    </linearGradient>
    <linearGradient id="linear-gradient-3" x1="956.67" y1="2061" x2="956.67" y2="2592.5" gradientUnits="userSpaceOnUse">
      <stop offset="0" stop-color="#8a43c1"/>
      <stop offset="1" stop-color="#352288"/>
    </linearGradient>
  </defs>
  <path class="cls-5" d="M1164.31,1293.1h-175.73v-697.93c0-59.12,47.93-107.05,107.05-107.05h339.95c59.12,0,107.05,47.93,107.05,107.05v319.61c0,208.94-169.38,378.32-378.32,378.32Z"/>
  <path class="cls-2" d="M1075.85,1311.2l-117.65,263.71-125.58-281.81h-83.58c-208.94,0-378.32-169.38-378.32-378.32v-319.61c0-59.12,47.93-107.05,107.05-107.05h339.95c59.12,0,107.05,47.93,107.05,107.05v424.95l33.12-78.04,118.94,283.91c11.45,27.32,11.09,58.16-.98,85.21Z"/>
  <path class="cls-1" d="M1164.67,208c0,114.88-93.12,208-208,208s-208-93.12-208-208S841.8,0,956.67,0s208,93.12,208,208Z"/>
  <circle class="cls-6" cx="718.49" cy="1986.52" r="120.55"/>
  <path class="cls-3" d="M1622.47,2126.69c163.31-10.99,298.49,118.75,290.54,283.14-8.61,177.97-158.16,273.27-327.57,246.15-307.45-49.21-285.2-507.59,37.03-529.29ZM1629.88,2273.3c-147.68,13.69-132.18,250.26,15.83,242.41,146.16-7.76,135.14-256.4-15.83-242.41ZM1184.4,2224.7c-17.26,49.17-32.84,100.35-50.29,149.63-2.26,6.39-17.04,51.32-19.72,51.96-2.52.6-12.24-27.07-15.6-35.85-24-62.62-47.1-133.96-70.72-193.09-11.2-28.03-38.97-57.93-66.52-59.23-44.08-2.09-118.39,41.3-105.18,91.85,25.6,60.02,99.3,226.73,160.47,360.81,10.18,22.31,22.42,44.99,47.06,54.09,18.77,6.93,77.36,6.3,98.1,4.05,21.83-2.37,27.15-17.18,36.19-34.46,23.06-44.05,44.87-93.55,64.99-139.19,31.22-70.79,66.34-146.64,96.06-219.53,17.92-43.94,12.24-72.26-26.04-101.28-18.81-14.26-33.11-20.35-57.28-17.08-42.96,5.81-77.48,47.35-91.51,87.33ZM320.77,2006.74c70.85-2.56,87.6,27.84,113.12,84.44,69.35,153.79,125.82,313.58,191.53,468.95,22.4,67.47-30.97,96.3-90.36,96.4-74.91.12-76.03-77.94-103.14-129.48-2.86-5.56-4.54-4.75-4.54-4.75l-214.59.03s-1.86-.48-6.25,7.8c-20.22,38.17-31.51,114.43-78.92,123.96-45.44,9.14-146.37-28.66-124.57-88.4,72.74-161.81,132.23-330.49,208.19-490.79,22.69-47.89,56.21-66.23,109.54-68.16ZM321.06,2216.59l-4.72,3.4-58.72,157.57-1.18,3.17,122.4.22-57.78-164.37ZM639.63,2239.7c19.49,108.58,35.04,218.33,52.13,331.1,7.06,46.59,9.8,70,61.69,80.48,44,8.89,128.09,12.53,117.1-56.38-19.44-117.84-38.64-244.01-59.16-362.28-5.57-32.09-17.34-51.43-58.95-51.29-34.93.12-108.68,15.87-112.81,58.37Z"/>
  <circle class="cls-4" cx="718.59" cy="1985.91" r="119.93"/>
  <g>
    <path class="cls-6" d="M0,2777.29h59.45v208.43h128.8v48.44H0v-256.87Z"/>
    <path class="cls-6" d="M413.2,2986.46v47.7h-198.89v-256.87h194.12v47.7h-135.04v55.78h119.26v46.24h-119.26v59.45h139.81Z"/>
    <path class="cls-6" d="M622.37,2979.12h-119.26l-22.75,55.04h-60.92l114.49-256.87h58.71l114.86,256.87h-62.38l-22.75-55.04ZM603.65,2933.98l-40.73-98.35-40.73,98.35h81.47Z"/>
    <path class="cls-6" d="M890.62,3034.16l-49.54-71.56h-54.68v71.56h-59.45v-256.87h111.19c68.62,0,111.56,35.6,111.56,93.21,0,38.53-19.45,66.79-52.84,81.1l57.61,82.57h-63.85ZM834.84,2825.73h-48.44v89.54h48.44c36.33,0,54.68-16.88,54.68-44.77s-18.35-44.77-54.68-44.77Z"/>
    <path class="cls-6" d="M1224.92,2777.29v256.87h-48.81l-128.07-155.96v155.96h-58.71v-256.87h49.17l127.7,155.96v-155.96h58.71Z"/>
    <path class="cls-6" d="M1278.5,2777.29h59.45v256.87h-59.45v-256.87Z"/>
    <path class="cls-6" d="M1627.11,2777.29v256.87h-48.81l-128.07-155.96v155.96h-58.71v-256.87h49.17l127.7,155.96v-155.96h58.71Z"/>
    <path class="cls-6" d="M1854.26,2901.69h54.31v104.22c-28.26,21.28-67.15,32.66-103.85,32.66-80.73,0-140.18-55.41-140.18-132.84s59.45-132.84,141.28-132.84c45.14,0,82.57,15.41,107.52,44.4l-38.16,35.23c-18.72-19.82-40.37-28.99-66.42-28.99-49.91,0-84.03,33.39-84.03,82.2s34.13,82.2,83.3,82.2c16.15,0,31.19-2.94,46.24-11.01v-75.23Z"/>
  </g>
</svg>