<?xml version="1.0" encoding="UTF-8"?>
<svg id="Layer_1" data-name="Layer 1" xmlns="http://www.w3.org/2000/svg" xmlns:xlink="http://www.w3.org/1999/xlink" viewBox="0 0 1171.9 1574.91">
  <defs>
    <style>
      .cls-1 {
        fill: #915ee3;
      }

      .cls-2 {
        fill: url(#linear-gradient-2);
      }

      .cls-3 {
        fill: url(#linear-gradient);
      }
    </style>
    <linearGradient id="linear-gradient" x1="699.19" y1="495.5" x2="1029.34" y2="1233.06" gradientUnits="userSpaceOnUse">
      <stop offset="0" stop-color="#35cbda"/>
      <stop offset="1" stop-color="#1d95b1"/>
    </linearGradient>
    <linearGradient id="linear-gradient-2" x1="96.71" y1="494.53" x2="665.69" y2="1435.8" gradientUnits="userSpaceOnUse">
      <stop offset="0" stop-color="#9666e3"/>
      <stop offset="1" stop-color="#8143e1"/>
    </linearGradient>
  </defs>
  <path class="cls-3" d="M793.59,1293.1h-175.73v-697.93c0-59.12,47.93-107.05,107.05-107.05h339.95c59.12,0,107.05,47.93,107.05,107.05v319.61c0,208.94-169.38,378.32-378.32,378.32Z"/>
  <path class="cls-2" d="M705.13,1311.2l-117.65,263.71-125.58-281.81h-83.58C169.38,1293.1,0,1123.72,0,914.78v-319.61c0-59.12,47.93-107.05,107.05-107.05h339.95c59.12,0,107.05,47.93,107.05,107.05v424.95l33.12-78.04,118.94,283.91c11.45,27.32,11.09,58.16-.98,85.21Z"/>
  <path class="cls-1" d="M793.95,208c0,114.88-93.12,208-208,208s-208-93.12-208-208S471.08,0,585.95,0s208,93.12,208,208Z"/>
</svg>