<?xml version="1.0" encoding="UTF-8"?>
<svg id="Layer_1" data-name="Layer 1" xmlns="http://www.w3.org/2000/svg" xmlns:xlink="http://www.w3.org/1999/xlink" viewBox="0 0 395.61 531.66">
  <defs>
    <style>
      .cls-1 {
        fill: url(#linear-gradient-2);
      }

      .cls-2 {
        fill: #15b0cf;
      }

      .cls-3 {
        fill: url(#linear-gradient);
      }
    </style>
    <linearGradient id="linear-gradient" x1="302.1" y1="173.05" x2="302.1" y2="487.23" gradientUnits="userSpaceOnUse">
      <stop offset="0" stop-color="#1cc2df"/>
      <stop offset="1" stop-color="#0891b2"/>
    </linearGradient>
    <linearGradient id="linear-gradient-2" x1="120.59" y1="173.05" x2="120.59" y2="487.23" xlink:href="#linear-gradient"/>
  </defs>
  <path class="cls-3" d="M267.9,436.53h-59.32v-235.61c0-19.96,16.18-36.14,36.14-36.14h114.76c19.96,0,36.14,16.18,36.14,36.14v107.89c0,70.53-57.18,127.71-127.71,127.71Z"/>
  <path class="cls-1" d="M238.04,442.64l-39.72,89.02-42.39-95.13h-28.22C57.18,436.53,0,379.35,0,308.81v-107.89c0-19.96,16.18-36.14,36.14-36.14h114.76c19.96,0,36.14,16.18,36.14,36.14v143.45l11.18-26.35,40.15,95.84c3.86,9.22,3.74,19.63-.33,28.77Z"/>
  <path class="cls-2" d="M268.02,70.22c0,38.78-31.44,70.22-70.22,70.22s-70.22-31.44-70.22-70.22S159.03,0,197.81,0s70.22,31.44,70.22,70.22Z"/>
</svg>