<?xml version="1.0" encoding="UTF-8"?>
<svg id="Layer_1" data-name="Layer 1" xmlns="http://www.w3.org/2000/svg" xmlns:xlink="http://www.w3.org/1999/xlink" viewBox="0 0 3933.93 1583.64">
  <defs>
    <style>
      .cls-1 {
        fill: #915ee3;
      }

      .cls-2 {
        fill: url(#linear-gradient-2);
      }

      .cls-3 {
        fill: url(#linear-gradient-3);
      }

      .cls-4 {
        fill: #0891b2;
      }

      .cls-5 {
        fill: #4f2c95;
      }

      .cls-6 {
        fill: url(#linear-gradient);
      }

      .cls-7 {
        fill: #1a1a2e;
      }
    </style>
    <linearGradient id="linear-gradient" x1="688.45" y1="509.23" x2="1025.62" y2="1202.3" gradientUnits="userSpaceOnUse">
      <stop offset="0" stop-color="#35cbda"/>
      <stop offset="1" stop-color="#1d95b1"/>
    </linearGradient>
    <linearGradient id="linear-gradient-2" x1="85.58" y1="495.44" x2="610.06" y2="1319.63" gradientUnits="userSpaceOnUse">
      <stop offset="0" stop-color="#9666e3"/>
      <stop offset="1" stop-color="#8143e1"/>
    </linearGradient>
    <linearGradient id="linear-gradient-3" x1="2641.9" y1="223.27" x2="2641.9" y2="1002.66" gradientUnits="userSpaceOnUse">
      <stop offset="0" stop-color="#8a43c1"/>
      <stop offset="1" stop-color="#352288"/>
    </linearGradient>
  </defs>
  <path class="cls-6" d="M793.59,1294.88h-175.73v-697.93c0-59.12,47.93-107.05,107.05-107.05h339.95c59.12,0,107.05,47.93,107.05,107.05v319.61c0,208.94-169.38,378.32-378.32,378.32Z"/>
  <path class="cls-2" d="M705.13,1312.98l-117.65,263.71-125.58-281.81h-83.58C169.38,1294.88,0,1125.5,0,916.56v-319.61c0-59.12,47.93-107.05,107.05-107.05h339.95c59.12,0,107.05,47.93,107.05,107.05v424.95l33.12-78.04,118.94,283.91c11.45,27.32,11.09,58.16-.98,85.21Z"/>
  <path class="cls-1" d="M793.95,209.78c0,114.88-93.12,208-208,208s-208-93.12-208-208S471.08,1.78,585.95,1.78s208,93.12,208,208Z"/>
  <circle class="cls-4" cx="2320.22" cy="162.8" r="162.8"/>
  <path class="cls-3" d="M3541.09,352.1c220.55-14.85,403.12,160.38,392.39,382.39-11.62,240.35-213.6,369.06-442.4,332.44-415.23-66.47-385.17-685.53,50.01-714.82ZM3551.1,550.11c-199.45,18.49-178.51,337.99,21.38,327.38,197.39-10.48,182.51-346.29-21.38-327.38ZM2949.46,484.47c-23.31,66.41-44.35,135.53-67.92,202.08-3.06,8.63-23.02,69.31-26.63,70.17-3.4.81-16.53-36.57-21.07-48.41-32.41-84.57-63.61-180.92-95.51-260.78-15.12-37.85-52.63-78.23-89.84-80-59.54-2.82-159.89,55.78-142.05,124.05,34.58,81.06,134.11,306.22,216.72,487.28,13.75,30.13,30.27,60.76,63.56,73.05,25.35,9.36,104.48,8.51,132.49,5.46,29.48-3.21,36.66-23.2,48.88-46.54,31.14-59.49,60.6-126.35,87.78-187.98,42.16-95.6,89.59-198.05,129.74-296.48,24.21-59.35,16.53-97.59-35.17-136.78-25.41-19.26-44.72-27.48-77.37-23.07-58.01,7.84-104.63,63.95-123.59,117.95ZM1783.08,190.11c95.68-3.45,118.31,37.6,152.78,114.05,93.65,207.71,169.92,423.5,258.66,633.34,30.25,91.12-41.83,130.06-122.03,130.2-101.17.17-102.68-105.26-139.29-174.87-3.86-7.51-6.14-6.42-6.14-6.42l-289.82.04s-2.51-.65-8.44,10.54c-27.31,51.55-42.56,154.54-106.59,167.41-61.37,12.34-197.68-38.71-168.24-119.39,98.25-218.53,178.59-446.34,281.17-662.83,30.64-64.67,75.91-89.45,147.93-92.05ZM1783.47,473.52l-6.37,4.6-79.3,212.81-1.6,4.29,165.31.3-78.03-221.99ZM2213.71,504.72c26.32,146.64,47.32,294.86,70.4,447.17,9.54,62.93,13.24,94.53,83.31,108.69,59.43,12,172.99,16.92,158.15-76.15-26.25-159.15-52.18-329.55-79.89-489.28-7.52-43.34-23.41-69.46-79.61-69.27-47.17.16-146.78,21.43-152.36,78.83Z"/>
  <circle class="cls-5" cx="2320.36" cy="161.97" r="161.97"/>
  <g>
    <path class="cls-7" d="M1349.87,1230.77h80.29v281.5h173.95v65.42h-254.24v-346.92Z"/>
    <path class="cls-7" d="M1907.91,1513.26v64.43h-268.61v-346.92h262.17v64.43h-182.38v75.33h161.07v62.44h-161.07v80.29h188.82Z"/>
    <path class="cls-7" d="M2190.41,1503.35h-161.07l-30.73,74.34h-82.27l154.63-346.92h79.3l155.12,346.92h-84.25l-30.73-74.34ZM2165.13,1442.39l-55.01-132.82-55.01,132.82h110.02Z"/>
    <path class="cls-7" d="M2552.69,1577.69l-66.91-96.64h-73.84v96.64h-80.29v-346.92h150.17c92.68,0,150.66,48.07,150.66,125.88,0,52.04-26.27,90.2-71.37,109.53l77.81,111.51h-86.23ZM2477.36,1296.19h-65.42v120.93h65.42c49.06,0,73.84-22.8,73.84-60.46s-24.78-60.46-73.84-60.46Z"/>
    <path class="cls-7" d="M3004.18,1230.77v346.92h-65.91l-172.96-210.63v210.63h-79.3v-346.92h66.41l172.47,210.63v-210.63h79.3Z"/>
    <path class="cls-7" d="M3076.54,1230.77h80.29v346.92h-80.29v-346.92Z"/>
    <path class="cls-7" d="M3547.36,1230.77v346.92h-65.91l-172.96-210.63v210.63h-79.3v-346.92h66.41l172.47,210.63v-210.63h79.3Z"/>
    <path class="cls-7" d="M3854.14,1398.78h73.35v140.75c-38.16,28.74-90.69,44.11-140.25,44.11-109.03,0-189.32-74.83-189.32-179.4s80.29-179.41,190.8-179.41c60.96,0,111.51,20.82,145.21,59.97l-51.54,47.58c-25.28-26.76-54.52-39.15-89.7-39.15-67.4,0-113.49,45.1-113.49,111.01s46.09,111.01,112.5,111.01c21.81,0,42.13-3.97,62.45-14.87v-101.6Z"/>
  </g>
</svg>