<?xml version="1.0" encoding="UTF-8"?>
<svg id="Layer_1" data-name="Layer 1" xmlns="http://www.w3.org/2000/svg" xmlns:xlink="http://www.w3.org/1999/xlink" viewBox="0 0 1242 2208">
  <defs>
    <style>
      .cls-1 {
        fill: #fff;
      }

      .cls-2 {
        fill: url(#linear-gradient);
      }
    </style>
    <linearGradient id="linear-gradient" x1="41.46" y1="26.45" x2="1189.95" y2="2161.86" gradientUnits="userSpaceOnUse">
      <stop offset="0" stop-color="#9666e3"/>
      <stop offset="1" stop-color="#8143e1"/>
    </linearGradient>
  </defs>
  <rect class="cls-2" width="1242" height="2208"/>
  <g>
    <g>
      <path class="cls-1" d="M401.02,1198.31h-32.95v-130.84c0-11.08,8.99-20.07,20.07-20.07h63.73c11.08,0,20.07,8.99,20.07,20.07v59.92c0,39.17-31.75,70.92-70.92,70.92Z"/>
      <path class="cls-1" d="M384.44,1201.7l-22.06,49.44-23.54-52.83h-15.67c-39.17,0-70.92-31.75-70.92-70.92v-59.92c0-11.08,8.99-20.07,20.07-20.07h63.73c11.08,0,20.07,8.99,20.07,20.07v79.67l6.21-14.63,22.3,53.23c2.15,5.12,2.08,10.9-.18,15.98Z"/>
    </g>
    <path class="cls-1" d="M401.09,994.88c0,21.54-17.46,38.99-38.99,38.99s-38.99-17.46-38.99-38.99,17.46-38.99,38.99-38.99,38.99,17.46,38.99,38.99Z"/>
    <circle class="cls-1" cx="687.23" cy="986.08" r="30.52"/>
    <path class="cls-1" d="M916.11,1021.56c41.35-2.78,75.58,30.07,73.56,71.69-2.18,45.06-40.04,69.19-82.94,62.32-77.85-12.46-72.21-128.52,9.38-134.01ZM917.98,1058.69c-37.39,3.47-33.47,63.36,4.01,61.38,37.01-1.96,34.22-64.92-4.01-61.38ZM805.19,1046.38c-4.37,12.45-8.31,25.41-12.73,37.88-.57,1.62-4.32,12.99-4.99,13.16-.64.15-3.1-6.86-3.95-9.08-6.08-15.86-11.92-33.92-17.91-48.89-2.83-7.1-9.87-14.67-16.84-15-11.16-.53-29.97,10.46-26.63,23.26,6.48,15.2,25.14,57.41,40.63,91.35,2.58,5.65,5.68,11.39,11.92,13.7,4.75,1.75,19.59,1.6,24.84,1.02,5.53-.6,6.87-4.35,9.16-8.72,5.84-11.15,11.36-23.69,16.46-35.24,7.9-17.92,16.8-37.13,24.32-55.58,4.54-11.13,3.1-18.29-6.59-25.64-4.76-3.61-8.38-5.15-14.5-4.32-10.88,1.47-19.62,11.99-23.17,22.11ZM586.53,991.19c17.94-.65,22.18,7.05,28.64,21.38,17.56,38.94,31.86,79.39,48.49,118.73,5.67,17.08-7.84,24.38-22.88,24.41-18.97.03-19.25-19.73-26.11-32.78-.72-1.41-1.15-1.2-1.15-1.2h-54.33s-.47-.11-1.58,1.98c-5.12,9.66-7.98,28.97-19.98,31.39s-37.06-7.26-31.54-22.38c18.42-40.97,33.48-83.68,52.71-124.26,5.74-12.12,14.23-16.77,27.73-17.26ZM586.6,1044.33l-1.19.86-14.87,39.9-.3.8,30.99.06-14.63-41.62ZM667.26,1050.18c4.93,27.49,8.87,55.28,13.2,83.83,1.79,11.8,2.48,17.72,15.62,20.38,11.14,2.25,32.43,3.17,29.65-14.28-4.92-29.84-9.78-61.78-14.98-91.73-1.41-8.12-4.39-13.02-14.92-12.99-8.84.03-27.52,4.02-28.56,14.78Z"/>
    <circle class="cls-1" cx="687.25" cy="985.92" r="30.37"/>
    <g>
      <path class="cls-1" d="M505.31,1186.29h15.05v52.77h32.61v12.26h-47.66v-65.04Z"/>
      <path class="cls-1" d="M609.93,1239.25v12.08h-50.36v-65.04h49.15v12.08h-34.19v14.12h30.2v11.71h-30.2v15.05h35.4Z"/>
      <path class="cls-1" d="M662.89,1237.39h-30.2l-5.76,13.94h-15.42l28.99-65.04h14.87l29.08,65.04h-15.79l-5.76-13.94ZM658.15,1225.97l-10.31-24.9-10.31,24.9h20.63Z"/>
      <path class="cls-1" d="M730.81,1251.33l-12.54-18.12h-13.84v18.12h-15.05v-65.04h28.15c17.37,0,28.25,9.01,28.25,23.6,0,9.76-4.92,16.91-13.38,20.53l14.59,20.91h-16.17ZM716.69,1198.56h-12.26v22.67h12.26c9.2,0,13.84-4.27,13.84-11.34s-4.65-11.34-13.84-11.34Z"/>
      <path class="cls-1" d="M815.45,1186.29v65.04h-12.36l-32.43-39.49v39.49h-14.87v-65.04h12.45l32.33,39.49v-39.49h14.87Z"/>
      <path class="cls-1" d="M829.02,1186.29h15.05v65.04h-15.05v-65.04Z"/>
      <path class="cls-1" d="M917.28,1186.29v65.04h-12.36l-32.43-39.49v39.49h-14.87v-65.04h12.45l32.33,39.49v-39.49h14.87Z"/>
      <path class="cls-1" d="M974.8,1217.79h13.75v26.39c-7.15,5.39-17,8.27-26.29,8.27-20.44,0-35.49-14.03-35.49-33.63s15.05-33.63,35.77-33.63c11.43,0,20.91,3.9,27.22,11.24l-9.66,8.92c-4.74-5.02-10.22-7.34-16.82-7.34-12.64,0-21.28,8.46-21.28,20.81s8.64,20.81,21.09,20.81c4.09,0,7.9-.74,11.71-2.79v-19.05Z"/>
    </g>
  </g>
</svg>